<svg width="469" height="255" viewBox="0 0 469 255" fill="none"
    xmlns="http://www.w3.org/2000/svg">
    <g clip-path="url(#clip0)">
        <path d="M236.005 255C363.178 255 466.272 248.176 466.272 239.758C466.272 231.34 363.178 224.516 236.005 224.516C108.832 224.516 5.73749 231.34 5.73749 239.758C5.73749 248.176 108.832 255 236.005 255Z" fill="#F2F2F2"/>
        <path d="M227.179 72.895C189.662 72.895 162.726 96.9618 162.726 153.118C162.726 216.761 189.662 233.607 227.179 233.607C264.696 233.607 293.237 215.156 293.237 153.118C293.237 86.8003 264.696 72.895 227.179 72.895ZM227.426 212.482C201.441 212.482 187.865 197.239 187.865 153.159C187.865 114.264 201.997 93.7529 227.982 93.7529C253.967 93.7529 268.098 107.226 268.098 153.159C268.098 196.128 253.411 212.482 227.426 212.482Z" fill="#2F2E41"/>
        <path d="M140.261 189.217H124.749V143.545C124.749 141.12 123.785 138.793 122.07 137.078C120.354 135.362 118.027 134.399 115.601 134.399H111.967C110.765 134.399 109.576 134.635 108.466 135.095C107.356 135.555 106.348 136.228 105.498 137.078C104.649 137.927 103.975 138.935 103.515 140.045C103.055 141.155 102.819 142.344 102.819 143.545V189.217H59.0658C58.1657 189.217 57.2809 188.985 56.4972 188.542C55.7136 188.099 55.0576 187.462 54.593 186.691C54.1284 185.92 53.871 185.042 53.8456 184.143C53.8203 183.243 54.0279 182.352 54.4484 181.556L100.756 93.9217C101.333 92.8291 101.683 91.6308 101.785 90.3993C101.886 89.1678 101.737 87.9285 101.346 86.7562C100.955 85.5839 100.331 84.5029 99.5108 83.5786C98.6906 82.6542 97.6916 81.9056 96.5741 81.378L93.8404 80.0872C91.7178 79.085 89.291 78.937 87.0623 79.6739C84.8336 80.4108 82.9734 81.9761 81.8668 84.046L25.3884 189.686C24.4267 191.485 23.9235 193.493 23.9235 195.533C23.9235 197.162 24.2444 198.775 24.8677 200.28C25.4911 201.784 26.4048 203.152 27.5566 204.303C28.7085 205.455 30.0759 206.369 31.5809 206.992C33.0858 207.615 34.6988 207.936 36.3278 207.936H102.819V236.816C102.819 238.256 103.102 239.682 103.654 241.012C104.205 242.342 105.012 243.55 106.03 244.569C107.049 245.587 108.257 246.394 109.588 246.945C110.918 247.496 112.344 247.78 113.784 247.78H113.784C115.224 247.78 116.65 247.496 117.98 246.945C119.311 246.394 120.519 245.587 121.537 244.569C122.556 243.55 123.363 242.342 123.914 241.012C124.465 239.682 124.749 238.256 124.749 236.816V207.936H140.261C142.743 207.936 145.124 206.95 146.88 205.195C148.635 203.439 149.621 201.059 149.621 198.577C149.621 196.094 148.635 193.714 146.88 191.959C145.124 190.203 142.743 189.217 140.261 189.217Z" fill="#FFBA56"/>
        <path d="M427.493 189.217H411.982V143.545C411.982 141.12 411.018 138.793 409.302 137.078C407.587 135.362 405.26 134.399 402.834 134.399H399.199C397.998 134.399 396.808 134.635 395.699 135.095C394.589 135.555 393.58 136.228 392.731 137.078C391.881 137.927 391.208 138.935 390.748 140.045C390.288 141.155 390.051 142.344 390.051 143.545V189.217H346.298C345.398 189.217 344.514 188.985 343.73 188.542C342.946 188.099 342.29 187.462 341.826 186.691C341.361 185.92 341.104 185.042 341.078 184.143C341.053 183.243 341.261 182.352 341.681 181.556L387.989 93.9217C388.566 92.8291 388.916 91.6309 389.017 90.3993C389.119 89.1678 388.97 87.9285 388.579 86.7562C388.188 85.5839 387.564 84.5029 386.743 83.5786C385.923 82.6542 384.924 81.9056 383.807 81.378L381.073 80.0872C378.95 79.085 376.524 78.937 374.295 79.6739C372.066 80.4108 370.206 81.9761 369.099 84.046L312.621 189.686C311.659 191.485 311.156 193.493 311.156 195.533C311.156 198.823 312.463 201.977 314.789 204.303C317.115 206.629 320.271 207.936 323.56 207.936H390.051V236.816C390.051 239.724 391.207 242.512 393.263 244.569C395.319 246.625 398.108 247.78 401.017 247.78C403.925 247.78 406.714 246.625 408.77 244.569C410.826 242.512 411.982 239.724 411.982 236.816V207.936H427.493C429.976 207.936 432.357 206.95 434.112 205.195C435.868 203.439 436.854 201.059 436.854 198.577C436.854 196.094 435.868 193.714 434.112 191.959C432.357 190.203 429.976 189.217 427.493 189.217Z" fill="#FFBA56"/>
        <path d="M144.54 183.869H129.028V138.197C129.028 136.996 128.792 135.807 128.332 134.697C127.872 133.587 127.198 132.579 126.349 131.73C125.499 130.88 124.491 130.207 123.381 129.747C122.271 129.287 121.082 129.051 119.88 129.051H116.246C113.82 129.051 111.493 130.014 109.777 131.73C108.062 133.445 107.098 135.771 107.098 138.197V183.869H63.3449C62.4448 183.869 61.56 183.637 60.7763 183.194C59.9926 182.751 59.3366 182.114 58.872 181.343C58.4075 180.572 58.15 179.694 58.1247 178.795C58.0993 177.895 58.307 177.004 58.7275 176.208L105.035 88.5735C105.613 87.481 105.962 86.2827 106.064 85.0512C106.165 83.8196 106.016 82.5803 105.625 81.408C105.234 80.2357 104.61 79.1548 103.79 78.2304C102.97 77.3061 101.971 76.5575 100.853 76.0298L98.1195 74.7391C95.9968 73.7369 93.5701 73.5889 91.3414 74.3257C89.1126 75.0626 87.2525 76.628 86.1459 78.6979L29.6675 184.338C28.7057 186.137 28.2026 188.145 28.2026 190.185V190.185C28.2026 193.475 29.5094 196.629 31.8357 198.955C34.1619 201.281 37.317 202.588 40.6068 202.588H107.098V231.468C107.098 232.908 107.382 234.333 107.933 235.664C108.484 236.994 109.291 238.202 110.31 239.221C111.328 240.239 112.537 241.046 113.867 241.597C115.197 242.148 116.623 242.432 118.063 242.432H118.063C120.971 242.432 123.76 241.277 125.817 239.221C127.873 237.164 129.028 234.376 129.028 231.468V202.588H144.54C145.769 202.588 146.986 202.346 148.122 201.875C149.258 201.405 150.289 200.716 151.159 199.847C152.028 198.978 152.717 197.946 153.188 196.81C153.658 195.675 153.9 194.458 153.9 193.229V193.229C153.9 192 153.658 190.782 153.188 189.647C152.717 188.511 152.028 187.48 151.159 186.611C150.289 185.741 149.258 185.052 148.122 184.582C146.986 184.111 145.769 183.869 144.54 183.869V183.869Z" stroke="#3F3D56" stroke-miterlimit="10"/>
        <path d="M435.516 183.869H420.005V138.197C420.005 135.771 419.041 133.445 417.326 131.73C415.61 130.014 413.283 129.051 410.857 129.051H407.222C406.021 129.051 404.832 129.287 403.722 129.747C402.612 130.207 401.603 130.88 400.754 131.73C399.905 132.579 399.231 133.587 398.771 134.697C398.311 135.807 398.075 136.996 398.075 138.197V183.869H354.322C353.422 183.869 352.537 183.637 351.753 183.194C350.969 182.751 350.313 182.114 349.849 181.343C349.384 180.572 349.127 179.694 349.101 178.795C349.076 177.895 349.284 177.004 349.704 176.208L396.012 88.5735C396.589 87.481 396.939 86.2827 397.041 85.0512C397.142 83.8196 396.993 82.5803 396.602 81.408C396.211 80.2357 395.587 79.1548 394.767 78.2304C393.946 77.3061 392.947 76.5575 391.83 76.0298L389.096 74.7391C386.974 73.7369 384.547 73.5889 382.318 74.3257C380.089 75.0626 378.229 76.628 377.123 78.6979L320.644 184.338C319.682 186.137 319.179 188.145 319.179 190.185C319.179 193.475 320.486 196.629 322.812 198.955C325.139 201.281 328.294 202.588 331.584 202.588H398.075V231.468C398.075 234.376 399.23 237.164 401.286 239.221C403.343 241.277 406.132 242.432 409.04 242.432V242.432C411.948 242.432 414.737 241.277 416.793 239.221C418.85 237.164 420.005 234.376 420.005 231.468V202.588H435.516C436.746 202.588 437.963 202.346 439.099 201.875C440.234 201.405 441.266 200.716 442.135 199.847C443.005 198.978 443.694 197.946 444.164 196.81C444.635 195.675 444.877 194.458 444.877 193.229V193.229C444.877 190.746 443.891 188.366 442.135 186.611C440.38 184.855 437.999 183.869 435.516 183.869V183.869Z" stroke="#3F3D56" stroke-miterlimit="10"/>
        <path d="M235.737 68.0815C198.221 68.0815 171.284 92.1483 171.284 148.304C171.284 211.947 198.221 228.794 235.737 228.794C273.254 228.794 301.796 210.343 301.796 148.304C301.796 81.9868 273.254 68.0815 235.737 68.0815ZM235.984 207.669C209.999 207.669 196.423 192.426 196.423 148.345C196.423 109.45 210.555 88.9394 236.54 88.9394C262.525 88.9394 276.656 102.412 276.656 148.345C276.656 191.315 261.969 207.669 235.984 207.669V207.669Z" stroke="#3F3D56" stroke-miterlimit="10"/>
        <path d="M205.665 13.5969C208.776 13.5969 211.297 11.0759 211.297 7.96596C211.297 4.85604 208.776 2.33496 205.665 2.33496C202.555 2.33496 200.034 4.85604 200.034 7.96596C200.034 11.0759 202.555 13.5969 205.665 13.5969Z" fill="#2F2E41"/>
        <path d="M219.401 40.9277C228.125 40.9277 235.197 31.7657 235.197 20.4638C235.197 9.16198 228.125 0 219.401 0C210.677 0 203.605 9.16198 203.605 20.4638C203.605 31.7657 210.677 40.9277 219.401 40.9277Z" fill="#2F2E41"/>
        <path opacity="0.1" d="M219.401 34.7472C211.488 34.7472 204.934 27.2091 203.784 17.3735C203.665 18.3992 203.605 19.431 203.605 20.4637C203.605 31.7656 210.677 40.9276 219.401 40.9276C228.125 40.9276 235.197 31.7656 235.197 20.4637C235.198 19.431 235.138 18.3992 235.018 17.3735C233.868 27.2091 227.314 34.7472 219.401 34.7472Z" fill="black"/>
        <path d="M251.545 80.3928C251.205 81.7867 249.743 82.903 248.123 83.6829C244.717 85.3227 240.516 85.812 236.442 85.9762C235.402 86.0394 234.359 86.0201 233.323 85.9186C231.314 85.7244 229.43 84.8584 227.975 83.4607C227.871 83.393 227.786 83.3001 227.728 83.1906C227.67 83.0812 227.64 82.9587 227.642 82.8348C227.644 82.7108 227.677 82.5893 227.739 82.4817C227.8 82.3741 227.888 82.2839 227.994 82.2194C230.163 79.8367 233.783 78.3758 237.43 77.3239C240.195 76.5263 245.018 74.4602 248.033 74.7391C250.955 75.0091 251.973 78.6329 251.545 80.3928Z" fill="#3F3D56"/>
        <path opacity="0.1" d="M251.545 80.3928C251.205 81.7867 249.743 82.903 248.123 83.6829C244.717 85.3227 240.516 85.812 236.442 85.9762C235.402 86.0394 234.359 86.0201 233.323 85.9186C231.314 85.7244 229.43 84.8584 227.975 83.4607C227.871 83.393 227.786 83.3001 227.728 83.1906C227.67 83.0812 227.64 82.9587 227.642 82.8348C227.644 82.7108 227.677 82.5893 227.739 82.4817C227.8 82.3741 227.888 82.2839 227.994 82.2194C230.163 79.8367 233.783 78.3758 237.43 77.3239C240.195 76.5263 245.018 74.4602 248.033 74.7391C250.955 75.0091 251.973 78.6329 251.545 80.3928Z" fill="black"/>
        <path d="M208.242 69.9755C207.202 72.0127 207.014 74.3793 207.719 76.5552C208.435 78.7146 209.777 80.6129 211.573 82.0097C215.98 85.5415 222.044 86.0275 227.692 85.9784C232.641 85.9354 237.583 85.5967 242.492 84.9641C244.137 84.8184 245.754 84.4431 247.295 83.8492C249.138 83.0519 250.757 81.5893 251.414 79.6915C252.07 77.7937 251.604 75.4698 250.046 74.2032C248.676 73.0903 246.788 72.9373 245.027 72.8314L234.948 72.2258C235.944 71.2183 237.27 70.6484 238.482 69.9159C240.091 68.9442 241.16 67.3126 242.329 65.8416C244.132 63.6879 246.093 61.6721 248.196 59.8109C248.524 61.6923 249.714 63.2372 251.115 64.5353C252.516 65.8334 254.131 66.8784 255.587 68.1144C259.113 71.1079 261.652 75.1708 265.361 77.9352C267.913 77.2649 270.298 76.0742 272.367 74.4381L270.926 71.8274C270.805 71.5587 270.618 71.3253 270.382 71.1496C269.974 70.8986 269.448 71.0279 268.974 70.9569C267.708 70.7671 267.155 69.3053 266.658 68.1254C265.294 64.886 262.682 62.3727 260.452 59.6562C258.805 57.6509 257.345 55.5 256.088 53.2301C255.339 51.8763 254.653 50.4667 253.636 49.3004C252.619 48.1341 251.194 47.2172 249.647 47.2139C248.28 47.211 247.019 47.905 245.843 48.6032C242.262 50.7297 238.817 53.0765 235.528 55.6299C233.806 56.9663 232.095 58.3781 230.076 59.1976C229.226 59.5426 228.33 59.7784 227.514 60.1981C226.085 60.9333 225.001 62.1772 223.833 63.2814C219.67 67.2198 213.97 69.7714 208.242 69.9755Z" fill="#3F3D56"/>
        <path d="M229.316 41.9439C229.269 43.1478 229.013 44.3343 228.559 45.4502C228.329 46.0068 227.986 46.5101 227.553 46.9285C227.12 47.347 226.605 47.6718 226.041 47.8826C225.24 48.0972 224.4 48.1244 223.586 47.9622C222.877 47.8881 222.194 47.6553 221.586 47.281C220.641 46.6314 220.17 45.4722 219.999 44.3378C219.827 43.2047 219.904 42.0469 219.794 40.9056C219.687 39.9838 219.512 39.0711 219.269 38.1753C219.195 37.8772 219.12 37.5806 219.045 37.2839C218.973 36.9873 218.901 36.6906 218.835 36.394C218.775 36.1152 218.718 35.835 218.67 35.5534C218.631 35.3158 218.595 35.0769 218.569 34.8365C218.545 34.124 218.426 33.4178 218.216 32.7366C218.018 32.2948 217.771 31.8768 217.479 31.4909C217.354 31.3123 217.234 31.1338 217.122 30.9484C216.801 30.4665 216.651 29.8901 216.698 29.3126C216.711 29.2234 216.733 29.1355 216.762 29.0503C216.773 29.0174 216.786 28.9844 216.8 28.9528C216.923 28.9193 217.037 28.8561 217.13 28.7687C217.224 28.6813 217.295 28.5725 217.337 28.4515C217.384 28.1917 217.362 27.924 217.272 27.6755C217.169 27.3284 217.029 26.9935 216.853 26.6771C216.738 26.4683 216.346 26.092 216.344 25.853C216.338 25.3723 217.278 24.985 217.658 24.7955C218.819 24.214 220.114 23.9514 221.411 24.0346C222.242 24.0909 223.143 24.3464 223.602 25.0427C224.014 25.6703 223.959 26.4834 224.134 27.2127C224.153 27.3187 224.198 27.4183 224.265 27.5025C224.355 27.5841 224.467 27.636 224.588 27.6508C224.791 27.6913 225 27.6996 225.206 27.6755H225.207C225.262 27.6712 225.316 27.6634 225.369 27.6522C225.69 27.593 225.994 27.462 226.257 27.269C226.427 27.2237 226.599 27.1866 226.772 27.1577C226.779 27.157 226.786 27.1556 226.792 27.1536C227.481 29.325 227.57 31.6529 228.133 33.8641C228.412 34.9642 228.812 36.0506 228.868 37.1823C228.872 37.2317 228.873 37.2825 228.875 37.3333C228.883 37.6973 228.854 38.064 228.869 38.4266C228.875 38.5899 228.893 38.7524 228.924 38.9128C228.986 39.1706 229.062 39.4247 229.154 39.6736L229.158 39.686C229.184 39.7657 229.209 39.8467 229.229 39.9277C229.244 39.9868 229.258 40.0445 229.269 40.1035L229.27 40.1076C229.372 40.7145 229.387 41.3328 229.316 41.9439Z" fill="#FBBEBE"/>
        <path d="M219.676 27.7429C224.152 27.7429 227.78 24.115 227.78 19.6398C227.78 15.1645 224.152 11.5366 219.676 11.5366C215.2 11.5366 211.572 15.1645 211.572 19.6398C211.572 24.115 215.2 27.7429 219.676 27.7429Z" fill="#FBBEBE"/>
        <path d="M271.128 63.7894C270.893 61.5786 270.107 59.4622 268.842 57.6338C269.052 58.8836 269.263 60.1329 269.474 61.3818C269.211 61.4577 268.933 61.4554 268.671 61.3751C268.41 61.2949 268.178 61.1401 268.004 60.9299C267.663 60.5039 267.402 60.0195 267.233 59.5002C266.313 57.2149 265.109 55.0541 263.65 53.0685C258.491 52.6387 253.39 50.5003 248.853 48.0075C244.315 45.5161 240.068 42.529 235.59 39.9318C234.814 39.4626 234.005 39.0496 233.17 38.6958C231.769 38.134 230.196 37.8429 228.868 37.1823C228.779 37.1383 228.689 37.0916 228.601 37.0435C228.301 36.8804 228.017 36.6895 227.753 36.4736C227.609 36.3575 227.474 36.2327 227.346 36.1C226.683 35.3291 226.158 34.4502 225.792 33.5015C225.08 31.9248 224.825 30.0227 224.114 28.446C224.441 28.1404 224.808 27.8811 225.206 27.6755H225.207C225.265 27.6453 225.323 27.6164 225.382 27.589C225.663 27.4564 225.956 27.3493 226.257 27.269C226.427 27.2236 226.599 27.1866 226.772 27.1577C226.779 27.157 226.786 27.1556 226.792 27.1536C227.595 27.0228 228.417 27.0879 229.189 27.3431C230.318 27.7249 231.27 28.4872 232.219 29.2082C233.761 30.2944 235.24 31.4674 236.649 32.7214C237.432 33.4713 238.146 34.2953 238.988 34.9766C239.688 35.5165 240.426 36.0053 241.196 36.4392C245.752 39.1531 250.309 41.8665 254.866 44.5794C256.408 45.4983 257.952 46.4171 259.46 47.3895C261.751 48.8672 263.96 50.4686 266.168 52.0687C267.468 53.0108 268.769 53.9534 270.069 54.8965C270.495 55.1686 270.869 55.5146 271.174 55.9183C271.444 56.3768 271.611 56.8878 271.665 57.4167C271.991 59.5536 271.807 61.7373 271.128 63.7894Z" fill="#FBBEBE"/>
        <path d="M231.325 48.0377C230.779 50.4892 228.301 51.9712 227.005 54.1247C225.395 56.7973 226.052 59.904 226.656 62.9653C225.552 63.9171 224.447 64.8689 223.342 65.8206C222.732 66.3439 222.122 66.8699 221.466 67.3328C220.508 67.9742 219.508 68.5487 218.471 69.0523C217.493 69.555 216.515 70.0581 215.537 70.5616C214.628 71.0728 213.665 71.4809 212.665 71.7785C210.738 72.2729 208.691 71.9268 206.785 71.3541C206.56 71.2952 206.344 71.207 206.142 71.0918C206.023 71.0209 205.919 70.927 205.837 70.8157C205.649 70.4788 205.581 70.0881 205.643 69.7074C205.837 66.4991 206.621 63.3581 207.403 60.2405C207.821 58.3701 208.382 56.5348 209.083 54.7509C209.77 53.2224 210.56 51.7421 211.447 50.3203C212.426 48.5313 213.586 46.8474 214.908 45.295C215.552 44.6975 216.094 43.9988 216.512 43.2266C217 42.1142 216.812 40.8383 216.911 39.6269C216.987 38.7168 217.228 37.8282 217.624 37.0051V37.0037C217.835 36.5603 218.09 36.1389 218.385 35.7456C218.518 36.056 218.651 36.366 218.784 36.6754C218.872 36.8787 218.959 37.0815 219.045 37.2839C219.158 37.5448 219.27 37.8049 219.381 38.064C219.701 38.8084 220.02 39.5523 220.339 40.2958C220.684 41.2322 221.176 42.1079 221.795 42.8902C222.079 43.2907 222.461 43.611 222.905 43.8197C223.349 44.0284 223.839 44.1184 224.329 44.0809C224.818 44.0434 225.289 43.8797 225.696 43.6057C226.103 43.3318 226.432 42.957 226.651 42.518C227.113 41.6984 227.447 40.8134 227.643 39.8934C227.914 38.7731 227.951 37.609 227.753 36.4736C227.422 34.2871 226.492 32.0539 225.816 30.0227C225.541 29.3454 225.381 28.6267 225.345 27.8966C225.346 27.8146 225.354 27.7328 225.369 27.6521C225.373 27.6315 225.378 27.6096 225.382 27.589C225.663 27.4564 225.956 27.3493 226.257 27.269C226.427 27.2236 226.599 27.1866 226.772 27.1577C227.367 30.377 227.962 33.5963 228.559 36.8156C228.573 36.8911 228.588 36.9666 228.601 37.0435C228.687 37.505 228.773 37.9665 228.869 38.4266C228.956 38.8441 229.049 39.2602 229.154 39.6736L229.158 39.686C229.193 39.8261 229.231 39.9648 229.269 40.1035L229.27 40.1076C229.376 40.4867 229.494 40.863 229.627 41.2338C230.435 43.4684 231.843 45.718 231.325 48.0377Z" fill="#FFBA56"/>
        <path d="M264.215 82.49C264.189 82.9622 264.281 83.4335 264.481 83.8619C264.989 84.7888 266.205 84.9995 267.259 85.0862C273.41 85.5918 279.599 85.4032 285.709 84.5241C286.04 84.5014 286.362 84.4016 286.648 84.2327C287.516 83.6238 286.981 82.1398 286.032 81.6647C285.084 81.1896 283.958 81.3041 282.918 81.0984C281.884 80.8382 280.899 80.4112 280.003 79.8343C277.892 78.6219 275.812 77.3578 273.763 76.0422C272.544 75.2589 271.104 74.4229 269.73 74.8873C266.008 76.1461 264.191 78.476 264.215 82.49Z" fill="#3F3D56"/>
        <path d="M218.867 36.2223V36.2237C218.857 36.2814 218.848 36.3377 218.835 36.394C218.82 36.4874 218.802 36.5821 218.784 36.6755C218.614 37.5476 218.405 38.4156 218.165 39.2781C217.506 41.661 216.622 44.0054 215.746 46.3155C213.394 52.5096 211.042 58.7041 208.69 64.8991C208.097 66.4593 207.505 68.0209 206.83 69.5495C206.605 70.059 206.373 70.5727 206.142 71.0918C205.315 72.9501 204.521 74.8687 204.257 76.8464C204.011 78.148 203.983 79.4814 204.174 80.7922C204.437 82.0887 205.224 83.355 206.456 83.8344C207.058 84.0692 207.919 84.3837 207.754 85.0086C207.665 85.352 207.275 85.5195 206.925 85.5772C206.462 85.6509 205.989 85.6219 205.539 85.4924C205.089 85.3628 204.673 85.1357 204.321 84.8274C203.663 84.2437 203.157 83.3358 202.282 83.2383C201.676 83.1724 201.119 83.535 200.564 83.789C198.3 84.8232 195.663 84.0994 193.285 83.3647C193.472 82.4019 194.439 81.7674 195.399 81.5751C196.359 81.3815 197.352 81.5188 198.332 81.4927C198.645 81.5094 198.957 81.4294 199.223 81.2633C199.462 81.044 199.63 80.7578 199.704 80.442C200.335 78.573 200.804 76.6532 201.106 74.7039C201.422 72.6672 201.554 70.5988 202.005 68.5867C202.355 67.0169 202.896 65.4966 203.36 63.9556C204.258 60.7828 204.995 57.5668 205.569 54.3197C205.859 52.9707 206.067 51.6053 206.191 50.2311C206.27 49.0912 206.233 47.9457 206.342 46.8099C206.527 45.3322 206.835 43.8727 207.264 42.4466C207.684 40.8905 208.104 39.3354 208.524 37.7811C209.146 35.4806 209.813 33.0909 211.39 31.3027C211.938 30.6732 212.609 30.1629 213.362 29.8033C214.115 29.4437 214.934 29.2426 215.768 29.2124C216.081 29.212 216.392 29.2456 216.698 29.3127C216.749 29.325 216.8 29.3374 216.85 29.3511C217.183 29.4381 217.503 29.5703 217.8 29.7439C218.286 29.4349 218.533 29.5434 218.856 30.02C219.139 30.5243 219.272 31.0989 219.24 31.6763C219.268 33.2003 219.142 34.7232 218.867 36.2223Z" fill="#FBBEBE"/>
        <path d="M219.401 38.0434L219.381 38.064L219.269 38.1753L218.165 39.2781L217.624 37.0051L215.768 29.2124C216.081 29.212 216.393 29.2456 216.698 29.3126C216.711 29.2233 216.733 29.1355 216.763 29.0503L216.85 29.3511L217.48 31.4908L218.67 35.5534L218.867 36.2223V36.2236L219.401 38.0434Z" fill="#FFBA56"/>
        <path d="M226.409 13.1825C226.408 13.9041 226.265 14.6184 225.988 15.2846C225.711 15.9509 225.305 16.5559 224.794 17.0653C224.609 17.2507 224.41 17.4223 224.2 17.5787C223.252 18.2932 222.098 18.6799 220.911 18.6805H214.321C212.865 18.6782 211.469 18.0983 210.44 17.0679C209.411 16.0376 208.833 14.6412 208.833 13.1852C208.833 11.7292 209.411 10.3328 210.44 9.30246C211.469 8.27214 212.865 7.69219 214.321 7.68994H220.911C222.367 7.69373 223.762 8.27346 224.793 9.30255C225.823 10.3316 226.404 11.7265 226.409 13.1825Z" fill="#2F2E41"/>
        <path d="M232.588 13.5969C235.698 13.5969 238.219 11.0759 238.219 7.96596C238.219 4.85604 235.698 2.33496 232.588 2.33496C229.477 2.33496 226.956 4.85604 226.956 7.96596C226.956 11.0759 229.477 13.5969 232.588 13.5969Z" fill="#2F2E41"/>
        <path opacity="0.1" d="M232.45 2.33496C232.381 2.33496 232.313 2.3377 232.244 2.34017C233.701 2.39313 235.08 3.00902 236.092 4.05827C237.104 5.10753 237.67 6.50833 237.67 7.96596C237.67 9.42358 237.104 10.8244 236.092 11.8736C235.08 12.9229 233.701 13.5388 232.244 13.5917C232.313 13.5942 232.381 13.5969 232.45 13.5969C233.944 13.5969 235.376 13.0037 236.432 11.9477C237.489 10.8916 238.082 9.45939 238.082 7.96596C238.082 6.47252 237.489 5.04026 236.432 3.98424C235.376 2.92823 233.944 2.33496 232.45 2.33496Z" fill="black"/>
        <path opacity="0.1" d="M205.665 2.33496C205.734 2.33496 205.803 2.3377 205.871 2.34017C204.415 2.39313 203.035 3.00902 202.023 4.05827C201.011 5.10753 200.446 6.50833 200.446 7.96596C200.446 9.42358 201.011 10.8244 202.023 11.8736C203.035 12.9229 204.415 13.5388 205.871 13.5917C205.803 13.5942 205.734 13.5969 205.665 13.5969C204.173 13.5956 202.741 13.0018 201.686 11.9459C200.631 10.89 200.039 9.45853 200.039 7.96596C200.039 6.47338 200.631 5.04187 201.686 3.98599C202.741 2.93012 204.173 2.33628 205.665 2.33496Z" fill="black"/>
        <path opacity="0.1" d="M224.2 17.5791C223.252 18.2936 222.098 18.6803 220.91 18.6808H214.321C213.134 18.6803 211.979 18.2936 211.031 17.5791H224.2Z" fill="black"/>
        <path d="M266.755 58.3805C266.755 58.3805 268.174 62.471 269.474 61.3819L268.438 56.0352L266.755 58.3805Z" fill="#FBBEBE"/>
        <path d="M439.522 183.122C440.845 183.602 442.26 183.769 443.658 183.609C445.056 183.45 446.398 182.967 447.578 182.2C448.757 181.434 449.743 180.404 450.456 179.191C451.17 177.978 451.592 176.617 451.69 175.213C451.787 173.81 451.557 172.403 451.018 171.103C450.479 169.804 449.645 168.647 448.583 167.725C447.521 166.803 446.258 166.14 444.896 165.788C443.534 165.437 442.108 165.406 440.732 165.7L440.959 170.375L438.747 166.368C436.576 167.388 434.898 169.229 434.083 171.485C433.794 172.275 433.618 173.102 433.561 173.942C433.421 175.912 433.928 177.874 435.003 179.53C436.079 181.187 437.666 182.448 439.522 183.122Z" fill="#57B894"/>
        <path d="M450.469 237.35C449.688 233.373 453.072 229.848 456.415 227.557C459.758 225.266 463.663 223.014 464.804 219.126C466.443 213.537 461.561 208.419 457.76 204.006C454.941 200.73 452.52 197.132 450.547 193.287C449.757 191.745 449.03 190.133 448.822 188.413C448.523 185.936 449.318 183.471 450.12 181.108C452.792 173.237 455.648 165.431 458.689 157.691" stroke="#3F3D56" stroke-miterlimit="10"/>
        <path d="M439.896 181.918C441.219 182.399 442.635 182.566 444.033 182.406C445.43 182.246 446.772 181.764 447.952 180.997C449.132 180.23 450.117 179.2 450.831 177.987C451.544 176.775 451.966 175.413 452.064 174.01C452.161 172.606 451.931 171.199 451.392 169.9C450.853 168.6 450.02 167.444 448.957 166.521C447.895 165.599 446.633 164.936 445.27 164.584C443.908 164.233 442.482 164.203 441.106 164.496L441.334 169.172L439.121 165.165C436.95 166.185 435.272 168.025 434.458 170.281C434.168 171.071 433.992 171.899 433.935 172.738C433.795 174.709 434.302 176.67 435.377 178.327C436.453 179.983 438.04 181.244 439.896 181.918V181.918Z" stroke="#3F3D56" stroke-miterlimit="10"/>
        <path d="M449.359 156.077C449.878 154.645 450.749 153.367 451.891 152.36C453.034 151.353 454.412 150.651 455.898 150.316L456.646 154.761L458.033 150.093C459.958 150.121 461.825 150.761 463.363 151.919C464.902 153.078 466.032 154.695 466.591 156.538C467.15 158.38 467.109 160.353 466.474 162.171C465.839 163.989 464.642 165.557 463.057 166.651C461.472 167.744 459.58 168.306 457.655 168.254C455.73 168.203 453.871 167.541 452.347 166.364C450.822 165.188 449.711 163.557 449.174 161.708C448.637 159.859 448.702 157.887 449.359 156.077H449.359Z" fill="#57B894"/>
        <path d="M449.858 154.472C450.377 153.04 451.247 151.762 452.39 150.756C453.533 149.749 454.911 149.046 456.397 148.712L457.145 153.157L458.532 148.488C460.457 148.517 462.324 149.157 463.862 150.315C465.4 151.473 466.531 153.091 467.09 154.933C467.649 156.776 467.608 158.749 466.973 160.566C466.337 162.384 465.141 163.953 463.556 165.046C461.971 166.14 460.079 166.701 458.154 166.65C456.229 166.598 454.37 165.937 452.845 164.76C451.321 163.583 450.21 161.952 449.673 160.103C449.136 158.254 449.201 156.282 449.858 154.472H449.858Z" stroke="#3F3D56" stroke-miterlimit="10"/>
        <path d="M456.166 204.096C458.263 204.857 460.567 204.819 462.638 203.99C464.709 203.162 466.403 201.6 467.396 199.603C468.39 197.606 468.614 195.313 468.026 193.162C467.437 191.01 466.078 189.15 464.206 187.937L463.14 191.524L462.385 187.027C462.377 187.023 462.37 187.02 462.362 187.018C461.24 186.61 460.049 186.428 458.857 186.481C457.664 186.533 456.494 186.821 455.413 187.326C454.332 187.831 453.361 188.544 452.555 189.425C451.75 190.305 451.126 191.336 450.719 192.458C450.312 193.579 450.13 194.77 450.183 195.962C450.237 197.155 450.524 198.324 451.03 199.405C451.536 200.486 452.25 201.457 453.131 202.261C454.012 203.066 455.043 203.69 456.166 204.096H456.166Z" fill="#57B894"/>
        <path d="M456.598 202.47C458.695 203.231 460.999 203.193 463.07 202.364C465.141 201.536 466.835 199.974 467.829 197.977C468.822 195.98 469.046 193.687 468.458 191.536C467.87 189.384 466.51 187.524 464.638 186.311L463.573 189.898L462.817 185.401C462.81 185.397 462.802 185.394 462.794 185.392C461.672 184.984 460.481 184.802 459.289 184.855C458.097 184.907 456.926 185.195 455.845 185.7C454.764 186.205 453.793 186.918 452.987 187.799C452.182 188.679 451.558 189.71 451.151 190.832C450.744 191.953 450.562 193.144 450.615 194.336C450.669 195.529 450.957 196.698 451.463 197.779C451.968 198.86 452.682 199.831 453.563 200.635C454.445 201.44 455.476 202.064 456.598 202.47H456.598Z" stroke="#3F3D56" stroke-miterlimit="10"/>
        <path d="M446.707 219.181C447.068 221.233 448.123 223.098 449.696 224.464C451.268 225.83 453.263 226.614 455.345 226.684C457.427 226.754 459.47 226.106 461.131 224.849C462.792 223.592 463.97 221.802 464.468 219.78C464.966 217.757 464.753 215.625 463.865 213.74C462.977 211.856 461.468 210.334 459.592 209.43C457.715 208.526 455.584 208.295 453.557 208.775C451.53 209.256 449.73 210.418 448.458 212.068L452.506 218.16L446.975 214.927C446.546 216.303 446.455 217.762 446.707 219.181Z" fill="#57B894"/>
        <path d="M447.082 217.978C447.442 220.029 448.497 221.895 450.07 223.261C451.643 224.627 453.637 225.41 455.719 225.48C457.801 225.551 459.844 224.903 461.505 223.646C463.166 222.388 464.344 220.598 464.842 218.576C465.34 216.553 465.127 214.421 464.239 212.537C463.351 210.653 461.842 209.131 459.966 208.227C458.089 207.323 455.958 207.092 453.931 207.572C451.904 208.052 450.104 209.215 448.832 210.865L452.88 216.956L447.349 213.723C446.92 215.099 446.829 216.559 447.082 217.978V217.978Z" stroke="#3F3D56" stroke-miterlimit="10"/>
        <path d="M3.93197 205.25C4.80079 205.566 5.73109 205.676 6.64955 205.571C7.56802 205.466 8.44954 205.149 9.22463 204.645C9.99972 204.141 10.6472 203.464 11.116 202.668C11.5848 201.871 11.8622 200.976 11.9262 200.054C11.9903 199.132 11.8392 198.208 11.485 197.354C11.1308 196.5 10.5831 195.74 9.88511 195.134C9.18709 194.528 8.35783 194.093 7.4627 193.862C6.56756 193.631 5.63102 193.611 4.72689 193.804L4.8763 196.875L3.42272 194.243C1.99612 194.913 0.894013 196.122 0.358589 197.604C0.168437 198.124 0.0528392 198.667 0.0152434 199.219C-0.076507 200.513 0.256217 201.802 0.962994 202.891C1.66977 203.979 2.71208 204.807 3.93197 205.25Z" fill="#57B894"/>
        <path d="M11.1243 240.879C10.6112 238.266 12.8346 235.95 15.0309 234.445C17.2271 232.939 19.7933 231.46 20.5426 228.905C21.6196 225.234 18.4116 221.871 15.9148 218.971C14.0624 216.819 12.4716 214.455 11.1758 211.929C10.6124 210.937 10.2287 209.853 10.0422 208.727C9.84538 207.099 10.3683 205.48 10.8952 203.927C12.6503 198.755 14.5268 193.627 16.5247 188.542" stroke="#3F3D56" stroke-miterlimit="10"/>
        <path d="M4.17783 204.459C5.04664 204.775 5.97695 204.884 6.89541 204.779C7.81387 204.674 8.69538 204.358 9.47047 203.854C10.2456 203.35 10.893 202.673 11.3619 201.877C11.8307 201.08 12.108 200.185 12.1721 199.263C12.2361 198.341 12.0851 197.417 11.7309 196.563C11.3767 195.709 10.829 194.949 10.1309 194.343C9.43293 193.737 8.60368 193.302 7.70854 193.071C6.81341 192.84 5.87687 192.82 4.97274 193.013L5.12215 196.084L3.66857 193.452C2.24197 194.122 1.13986 195.331 0.604439 196.813C0.414289 197.333 0.298693 197.876 0.261095 198.428C0.169338 199.722 0.50206 201.011 1.20884 202.1C1.91562 203.188 2.95793 204.016 4.17783 204.459V204.459Z" stroke="#3F3D56" stroke-miterlimit="10"/>
        <path d="M10.3947 187.481C10.7357 186.541 11.3079 185.701 12.0588 185.039C12.8096 184.378 13.7148 183.916 14.6911 183.697L15.1825 186.617L16.0937 183.55C17.3589 183.569 18.5853 183.989 19.596 184.75C20.6066 185.511 21.3492 186.574 21.7166 187.784C22.0839 188.995 22.0569 190.291 21.6396 191.485C21.2222 192.68 20.4361 193.71 19.3946 194.429C18.3532 195.147 17.1103 195.516 15.8455 195.482C14.5807 195.448 13.3594 195.014 12.3578 194.24C11.3563 193.467 10.6264 192.396 10.2736 191.181C9.92074 189.966 9.96316 188.671 10.3947 187.481Z" fill="#57B894"/>
        <path d="M10.7225 186.427C11.0635 185.486 11.6357 184.646 12.3865 183.985C13.1374 183.323 14.0426 182.862 15.0188 182.642L15.5103 185.562L16.4215 182.495C17.6866 182.514 18.9131 182.934 19.9237 183.695C20.9344 184.456 21.677 185.519 22.0443 186.73C22.4117 187.94 22.3847 189.236 21.9673 190.431C21.55 191.625 20.7638 192.656 19.7224 193.374C18.6809 194.093 17.4381 194.461 16.1733 194.428C14.9084 194.394 13.6871 193.959 12.6856 193.186C11.6841 192.413 10.9542 191.341 10.6013 190.126C10.2485 188.911 10.2909 187.616 10.7225 186.427V186.427Z" stroke="#3F3D56" stroke-miterlimit="10"/>
        <path d="M14.867 219.031C16.2448 219.53 17.7584 219.506 19.1193 218.961C20.4801 218.417 21.593 217.391 22.2459 216.079C22.8987 214.767 23.0459 213.26 22.6593 211.847C22.2727 210.433 21.3794 209.211 20.1497 208.414L19.4495 210.771L18.953 207.816C18.9481 207.813 18.9431 207.812 18.9379 207.81C18.2009 207.542 17.4183 207.422 16.6348 207.456C15.8514 207.491 15.0824 207.68 14.3719 208.012C13.6614 208.343 13.0232 208.812 12.4939 209.391C11.9646 209.969 11.5545 210.646 11.2871 211.384C11.0197 212.121 10.9001 212.903 10.9353 213.687C10.9705 214.47 11.1598 215.239 11.4922 215.949C11.8247 216.659 12.2939 217.297 12.8729 217.825C13.452 218.354 14.1296 218.764 14.867 219.031Z" fill="#57B894"/>
        <path d="M15.151 217.963C16.5289 218.462 18.0425 218.438 19.4033 217.893C20.7641 217.349 21.877 216.323 22.5299 215.011C23.1828 213.699 23.3299 212.192 22.9433 210.779C22.5568 209.365 21.6635 208.143 20.4337 207.346L19.7336 209.703L19.2371 206.748C19.2322 206.745 19.2271 206.744 19.2219 206.742C18.485 206.475 17.7028 206.355 16.9197 206.39C16.1367 206.425 15.3682 206.614 14.6582 206.946C13.2242 207.617 12.1153 208.829 11.5755 210.317C11.0357 211.805 11.1091 213.446 11.7796 214.88C12.4502 216.314 13.6629 217.423 15.151 217.963V217.963Z" stroke="#3F3D56" stroke-miterlimit="10"/>
        <path d="M8.65279 228.942C8.8897 230.29 9.58293 231.515 10.6162 232.413C11.6495 233.31 12.96 233.825 14.3279 233.871C15.6958 233.917 17.038 233.492 18.1293 232.666C19.2206 231.84 19.9947 230.664 20.3218 229.335C20.6488 228.006 20.509 226.605 19.9256 225.367C19.3423 224.129 18.3509 223.129 17.1178 222.535C15.8848 221.941 14.4849 221.79 13.1531 222.105C11.8213 222.421 10.6385 223.184 9.80304 224.268L12.4625 228.271L8.82868 226.146C8.54693 227.051 8.48661 228.01 8.65279 228.942Z" fill="#57B894"/>
        <path d="M8.89864 228.151C9.13555 229.499 9.82877 230.724 10.862 231.622C11.8953 232.519 13.2058 233.034 14.5737 233.08C15.9417 233.126 17.2838 232.701 18.3751 231.875C19.4665 231.049 20.2406 229.873 20.5676 228.544C20.8947 227.215 20.7548 225.814 20.1715 224.576C19.5881 223.338 18.5968 222.338 17.3637 221.744C16.1306 221.15 14.7308 220.999 13.399 221.314C12.0671 221.63 10.8843 222.393 10.0489 223.477L12.7083 227.48L9.07453 225.355C8.79278 226.26 8.73246 227.219 8.89864 228.151V228.151Z" stroke="#3F3D56" stroke-miterlimit="10"/>
        <path d="M209.945 148.887C214.044 148.887 217.366 144.588 217.366 139.284C217.366 133.981 214.044 129.682 209.945 129.682C205.847 129.682 202.524 133.981 202.524 139.284C202.524 144.588 205.847 148.887 209.945 148.887Z" fill="#2F2E41"/>
        <path d="M250.324 149.105C254.423 149.105 257.745 144.806 257.745 139.503C257.745 134.2 254.423 129.9 250.324 129.9C246.226 129.9 242.903 134.2 242.903 139.503C242.903 144.806 246.226 149.105 250.324 149.105Z" fill="#2F2E41"/>
        <path d="M244.649 167.874C244.649 172.212 238.59 175.73 231.117 175.73C223.644 175.73 217.585 172.212 217.585 167.874C217.585 164.116 222.129 160.973 228.201 160.205C229.168 160.077 230.142 160.015 231.117 160.017C232.751 160.012 234.38 160.188 235.975 160.541C241.048 161.671 244.649 164.53 244.649 167.874Z" fill="#2F2E41"/>
        <path d="M211.691 146.705C215.79 146.705 219.112 142.406 219.112 137.102C219.112 131.799 215.79 127.5 211.691 127.5C207.593 127.5 204.271 131.799 204.271 137.102C204.271 142.406 207.593 146.705 211.691 146.705Z" stroke="#3F3D56" stroke-miterlimit="10"/>
        <path d="M252.07 146.923C256.169 146.923 259.491 142.624 259.491 137.321C259.491 132.017 256.169 127.718 252.07 127.718C247.972 127.718 244.649 132.017 244.649 137.321C244.649 142.624 247.972 146.923 252.07 146.923Z" stroke="#3F3D56" stroke-miterlimit="10"/>
        <path d="M232.863 173.547C240.337 173.547 246.395 170.03 246.395 165.691C246.395 161.352 240.337 157.834 232.863 157.834C225.389 157.834 219.331 161.352 219.331 165.691C219.331 170.03 225.389 173.547 232.863 173.547Z" stroke="#3F3D56" stroke-miterlimit="10"/>
        <path d="M236.137 161.196C236.14 161.745 235.934 162.274 235.561 162.676C235.384 162.869 235.17 163.023 234.931 163.129C234.692 163.234 234.434 163.29 234.173 163.291H229.807C229.269 163.272 228.761 163.041 228.393 162.649C228.025 162.256 227.827 161.734 227.843 161.196C227.841 160.77 227.965 160.354 228.201 159.999C229.167 159.863 230.141 159.796 231.117 159.799C232.753 159.794 234.384 159.981 235.975 160.358C236.083 160.624 236.138 160.908 236.137 161.196Z" fill="white"/>
        <path d="M211.692 136.666C212.897 136.666 213.874 135.689 213.874 134.484C213.874 133.278 212.897 132.301 211.692 132.301C210.486 132.301 209.509 133.278 209.509 134.484C209.509 135.689 210.486 136.666 211.692 136.666Z" fill="white"/>
        <path d="M252.288 136.666C253.494 136.666 254.471 135.689 254.471 134.484C254.471 133.278 253.494 132.301 252.288 132.301C251.083 132.301 250.106 133.278 250.106 134.484C250.106 135.689 251.083 136.666 252.288 136.666Z" fill="white"/>
        <path opacity="0.3" d="M254.471 157.18C255.676 157.18 256.654 156.203 256.654 154.998C256.654 153.792 255.676 152.815 254.471 152.815C253.266 152.815 252.288 153.792 252.288 154.998C252.288 156.203 253.266 157.18 254.471 157.18Z" fill="#FFBA56"/>
        <path opacity="0.3" d="M201.215 157.18C202.42 157.18 203.397 156.203 203.397 154.998C203.397 153.792 202.42 152.815 201.215 152.815C200.009 152.815 199.032 153.792 199.032 154.998C199.032 156.203 200.009 157.18 201.215 157.18Z" fill="#FFBA56"/>
    </g>
    <defs>
        <clipPath id="clip0">
            <rect width="469" height="255" fill="white"/>
        </clipPath>
    </defs>
</svg>
