<svg width="1920" height="3463" viewBox="0 0 1920 3463" fill="none" xmlns="http://www.w3.org/2000/svg">
<g opacity="0.5" filter="url(#filter0_f)">
<path d="M152.526 485.637C73.3362 417.502 127.783 314.802 164.906 271.969C-288.737 391.435 -40.408 480.371 -54.5585 615.311C-68.709 750.251 199.604 727.554 243.476 671.586C287.347 615.619 251.513 570.806 152.526 485.637Z" fill="#41EAD4"/>
</g>
<g opacity="0.15" filter="url(#filter1_f)">
<path d="M155.634 2396.67C6.1965 2268.09 108.943 2074.29 178.996 1993.46C-677.068 2218.9 -208.449 2386.73 -235.152 2641.37C-261.855 2896.02 244.476 2853.18 327.264 2747.57C410.053 2641.96 342.432 2557.39 155.634 2396.67Z" fill="#41EAD4"/>
</g>
<g opacity="0.1" filter="url(#filter2_f)">
<path d="M360.821 2664.65C356.934 2504.11 181.76 2468.81 94.659 2471.23C678.648 2048.12 542.504 2430.08 716.765 2544.7C891.025 2659.33 602.656 2956.3 493.36 2953.96C384.065 2951.61 365.679 2865.34 360.821 2664.65Z" fill="#41ADEA"/>
</g>
<g opacity="0.5" filter="url(#filter3_f)">
<path d="M1820.83 1009.64C1900.02 941.502 1845.57 838.802 1808.45 795.969C2262.09 915.435 2013.76 1004.37 2027.91 1139.31C2042.06 1274.25 1773.75 1251.55 1729.88 1195.59C1686.01 1139.62 1721.84 1094.81 1820.83 1009.64Z" fill="#41EAD4"/>
</g>
<g opacity="0.5" filter="url(#filter4_f)">
<path d="M1711.25 872.493C1751.41 837.941 1723.8 785.862 1704.97 764.141C1935.02 824.723 1809.09 869.823 1816.26 938.252C1823.44 1006.68 1687.38 995.171 1665.13 966.789C1642.88 938.408 1661.05 915.683 1711.25 872.493Z" fill="#7741EA"/>
</g>
<g opacity="0.5" filter="url(#filter5_f)">
<path d="M196.249 679.493C236.407 644.941 208.797 592.862 189.972 571.141C420.017 631.723 294.088 676.823 301.263 745.252C308.439 813.68 172.376 802.171 150.128 773.789C127.881 745.408 146.052 722.683 196.249 679.493Z" fill="#7741EA"/>
</g>
<g opacity="0.1" filter="url(#filter6_f)">
<path fill-rule="evenodd" clip-rule="evenodd" d="M1610.14 525.361C1781.69 503.623 1953.04 589.336 2061.4 724.104C2170.26 859.5 2211.27 1043.47 2160.22 1209.54C2112.91 1363.46 1966.64 1453.66 1818.05 1515.72C1681.39 1572.79 1532.19 1586.81 1395.96 1528.74C1251.02 1466.96 1110.87 1359.2 1085.89 1203.64C1062.06 1055.21 1190.69 941.731 1282.62 822.787C1377.5 700.027 1456.22 544.866 1610.14 525.361Z" fill="#7741EA"/>
</g>
<g opacity="0.1" filter="url(#filter7_f)">
<path fill-rule="evenodd" clip-rule="evenodd" d="M2038.14 1668.36C2209.69 1646.62 2381.04 1732.34 2489.4 1867.1C2598.26 2002.5 2639.27 2186.47 2588.22 2352.54C2540.91 2506.46 2394.64 2596.66 2246.05 2658.72C2109.39 2715.79 1960.19 2729.81 1823.96 2671.74C1679.02 2609.96 1538.87 2502.2 1513.89 2346.64C1490.06 2198.21 1618.69 2084.73 1710.62 1965.79C1805.5 1843.03 1884.22 1687.87 2038.14 1668.36Z" fill="#7741EA"/>
</g>
<g opacity="0.07" filter="url(#filter8_f)">
<path fill-rule="evenodd" clip-rule="evenodd" d="M530.627 350.34C752.13 322.272 973.374 432.944 1113.28 606.955C1253.84 781.775 1306.8 1019.32 1240.88 1233.74C1179.79 1432.48 990.928 1548.95 799.075 1629.08C622.626 1702.77 429.988 1720.87 254.081 1645.89C66.944 1566.12 -114.021 1426.98 -146.267 1226.12C-177.035 1034.47 -10.9548 887.951 107.746 734.373C230.256 575.867 331.888 375.524 530.627 350.34Z" fill="#41EAD4"/>
</g>
<g opacity="0.1" filter="url(#filter9_f)">
<path fill-rule="evenodd" clip-rule="evenodd" d="M2000.37 1869.34C1778.87 1841.27 1557.63 1951.94 1417.72 2125.95C1277.16 2300.78 1224.2 2538.32 1290.12 2752.74C1351.21 2951.48 1540.07 3067.95 1731.93 3148.08C1908.37 3221.77 2101.01 3239.87 2276.92 3164.89C2464.06 3085.12 2645.02 2945.98 2677.27 2745.12C2708.03 2553.47 2541.95 2406.95 2423.25 2253.37C2300.74 2094.87 2199.11 1894.52 2000.37 1869.34Z" fill="#41EAD4"/>
</g>
<g opacity="0.11" filter="url(#filter10_f)">
<path fill-rule="evenodd" clip-rule="evenodd" d="M363.228 349.271C530.253 328.116 697.083 411.53 802.579 542.684C908.566 674.448 948.5 853.487 898.799 1015.1C852.73 1164.89 710.319 1252.67 565.652 1313.07C432.601 1368.61 287.341 1382.25 154.698 1325.74C13.5871 1265.62 -122.87 1160.75 -147.185 1009.36C-170.386 864.907 -45.1526 754.474 44.3541 638.72C136.733 519.253 213.369 368.253 363.228 349.271Z" fill="#BE41EA"/>
</g>
<defs>
<filter id="filter0_f" x="-420" y="0" width="1010.36" height="1039.23" filterUnits="userSpaceOnUse" color-interpolation-filters="sRGB">
<feFlood flood-opacity="0" result="BackgroundImageFix"/>
<feBlend mode="normal" in="SourceGraphic" in2="BackgroundImageFix" result="shape"/>
<feGaussianBlur stdDeviation="125" result="effect1_foregroundBlur"/>
</filter>
<filter id="filter1_f" x="-703" y="1702" width="1463.08" height="1517.58" filterUnits="userSpaceOnUse" color-interpolation-filters="sRGB">
<feFlood flood-opacity="0" result="BackgroundImageFix"/>
<feBlend mode="normal" in="SourceGraphic" in2="BackgroundImageFix" result="shape"/>
<feGaussianBlur stdDeviation="125" result="effect1_foregroundBlur"/>
</filter>
<filter id="filter2_f" x="-171" y="1956" width="1275.67" height="1323.32" filterUnits="userSpaceOnUse" color-interpolation-filters="sRGB">
<feFlood flood-opacity="0" result="BackgroundImageFix"/>
<feBlend mode="normal" in="SourceGraphic" in2="BackgroundImageFix" result="shape"/>
<feGaussianBlur stdDeviation="125" result="effect1_foregroundBlur"/>
</filter>
<filter id="filter3_f" x="1383" y="524" width="1010.36" height="1039.23" filterUnits="userSpaceOnUse" color-interpolation-filters="sRGB">
<feFlood flood-opacity="0" result="BackgroundImageFix"/>
<feBlend mode="normal" in="SourceGraphic" in2="BackgroundImageFix" result="shape"/>
<feGaussianBlur stdDeviation="125" result="effect1_foregroundBlur"/>
</filter>
<filter id="filter4_f" x="1366" y="503" width="758.804" height="773.448" filterUnits="userSpaceOnUse" color-interpolation-filters="sRGB">
<feFlood flood-opacity="0" result="BackgroundImageFix"/>
<feBlend mode="normal" in="SourceGraphic" in2="BackgroundImageFix" result="shape"/>
<feGaussianBlur stdDeviation="125" result="effect1_foregroundBlur"/>
</filter>
<filter id="filter5_f" x="-149" y="310" width="758.804" height="773.448" filterUnits="userSpaceOnUse" color-interpolation-filters="sRGB">
<feFlood flood-opacity="0" result="BackgroundImageFix"/>
<feBlend mode="normal" in="SourceGraphic" in2="BackgroundImageFix" result="shape"/>
<feGaussianBlur stdDeviation="125" result="effect1_foregroundBlur"/>
</filter>
<filter id="filter6_f" x="833" y="272" width="1599" height="1544" filterUnits="userSpaceOnUse" color-interpolation-filters="sRGB">
<feFlood flood-opacity="0" result="BackgroundImageFix"/>
<feBlend mode="normal" in="SourceGraphic" in2="BackgroundImageFix" result="shape"/>
<feGaussianBlur stdDeviation="125" result="effect1_foregroundBlur"/>
</filter>
<filter id="filter7_f" x="1261" y="1415" width="1599" height="1544" filterUnits="userSpaceOnUse" color-interpolation-filters="sRGB">
<feFlood flood-opacity="0" result="BackgroundImageFix"/>
<feBlend mode="normal" in="SourceGraphic" in2="BackgroundImageFix" result="shape"/>
<feGaussianBlur stdDeviation="125" result="effect1_foregroundBlur"/>
</filter>
<filter id="filter8_f" x="-400" y="96.0001" width="1919" height="1848" filterUnits="userSpaceOnUse" color-interpolation-filters="sRGB">
<feFlood flood-opacity="0" result="BackgroundImageFix"/>
<feBlend mode="normal" in="SourceGraphic" in2="BackgroundImageFix" result="shape"/>
<feGaussianBlur stdDeviation="125" result="effect1_foregroundBlur"/>
</filter>
<filter id="filter9_f" x="1012" y="1615" width="1919" height="1848" filterUnits="userSpaceOnUse" color-interpolation-filters="sRGB">
<feFlood flood-opacity="0" result="BackgroundImageFix"/>
<feBlend mode="normal" in="SourceGraphic" in2="BackgroundImageFix" result="shape"/>
<feGaussianBlur stdDeviation="125" result="effect1_foregroundBlur"/>
</filter>
<filter id="filter10_f" x="-400" y="96.0002" width="1570" height="1516" filterUnits="userSpaceOnUse" color-interpolation-filters="sRGB">
<feFlood flood-opacity="0" result="BackgroundImageFix"/>
<feBlend mode="normal" in="SourceGraphic" in2="BackgroundImageFix" result="shape"/>
<feGaussianBlur stdDeviation="125" result="effect1_foregroundBlur"/>
</filter>
</defs>
</svg>
